<svg width="160" height="38" fill="none" xmlns="http://www.w3.org/2000/svg"><g clip-path="url(#a)"><rect y=".7" width="160" height="37" rx="4" fill="#756257"/><path d="m38 20-3.1-5.5h2.6l1.7 3.3.4 1 .4-1 1.8-3.3h2.4L40.9 20l3.4 5.8h-2.6l-2-3.4-.4-1.2-.4 1.2-2 3.4h-2.4L38 20Zm6.9.1c0-1.8.4-3.3 1.2-4.3.9-1 2-1.5 3.5-1.5a5 5 0 0 1 2.1.4c.6.3 1.1.7 1.5 1.2.4.5.7 1.1 1 1.8l.2 2.4c0 1.9-.4 3.3-1.2 4.3-.9 1-2 1.5-3.6 1.5a5 5 0 0 1-2-.4 4 4 0 0 1-1.6-1.2c-.3-.5-.6-1-.8-1.8-.2-.7-.3-1.5-.3-2.4Zm2.3 0 .1 1.6.5 1.2.7.8c.4.2.7.3 1.1.3a2 2 0 0 0 1.9-1c.4-.5.6-1.5.6-2.9l-.1-1.5a4 4 0 0 0-.5-1.2c-.2-.4-.4-.7-.7-.8a2 2 0 0 0-1.2-.4 2 2 0 0 0-1.8 1c-.4.6-.6 1.6-.6 3Zm10.7-5.6v3.6c0 .6.2 1 .4 1.4.3.3.7.5 1.3.5.4 0 .7 0 1-.2.5 0 .7-.2 1-.4v-4.9h2.1v11.2h-2.1v-4.5a5.3 5.3 0 0 1-2.8.6l-1.2-.1a2.6 2.6 0 0 1-1.6-1.5 4 4 0 0 1-.3-1.4v-4.3H58Zm11.5 5 .3 1.4h.1l.3-1.5 1.7-4.9H74l-3 7.8a18.3 18.3 0 0 1-1.3 2.7l-.9.6c-.3.2-.6.2-1 .2h-1l-.6-.4.5-1.7.5.1h.5c.5 0 .9-.3 1-1.1l-4.1-8.2H67l2.3 5Zm16.3 5.8-1.3.5a8 8 0 0 1-1.6.1 6 6 0 0 1-2-.3c-.5-.2-1-.5-1.5-1-.5-.4-.9-1-1.1-1.8a8 8 0 0 1-.4-2.7c0-1 .1-2 .4-2.7a5 5 0 0 1 1.2-1.8c.5-.5 1-.8 1.6-1l1.8-.3a8.6 8.6 0 0 1 2.7.4l-.4 1.9-.9-.3H83c-.9 0-1.6.3-2.1.9-.6.6-.8 1.6-.8 3 0 .5 0 1 .2 1.5l.5 1.2c.3.4.6.6 1 .8.4.2.9.3 1.4.3.5 0 .9 0 1.2-.2l.9-.3.4 1.8Zm3.6-6.2h1.4c.2-1.5.6-2.7 1.4-3.6a4 4 0 0 1 3.2-1.2c.8 0 1.5.1 2 .4.6.3 1 .7 1.5 1.2.3.5.6 1.1.8 1.8.2.8.2 1.5.2 2.4a7 7 0 0 1-1.1 4.3c-.8 1-2 1.5-3.4 1.5-.7 0-1.4 0-1.9-.3-.5-.2-1-.6-1.4-1l-.8-1.6c-.3-.6-.4-1.2-.5-2h-1.4v4.7H87V14.5h2.2v4.6Zm3.7 1v1.6l.5 1.2.7.8c.3.2.6.3 1 .3.8 0 1.4-.3 1.8-1 .4-.5.5-1.5.5-2.9v-1.5a4 4 0 0 0-.4-1.2 2 2 0 0 0-.7-.8c-.3-.2-.7-.4-1.1-.4-.8 0-1.4.4-1.8 1-.3.6-.5 1.6-.5 3Zm18 7.6h-1.6l-.2-2H102l-.3 2h-1.5v-4h1.1l.4-.7a24 24 0 0 0 1.1-8.5h6.7v9.3h1.4v4Zm-3.7-4v-7.2H105a29.4 29.4 0 0 1-1.2 7.3h3.6Zm10.4-.5h-3.4l-.9 2.5h-2.2l4-11.3h1.7l4 11.3h-2.3l-.9-2.5Zm-2.9-1.7h2.4l-.8-2.5-.3-1.8h-.1l-.4 1.8-.8 2.5Zm7.7-7h2.2v5.3l-.5 2.6H123l-.4-2.6v-5.3Zm-.2 10.2c0-.4.1-.7.3-1 .3-.1.6-.3 1-.3s.7.2 1 .4c.2.2.3.5.3.9 0 .3-.1.6-.4.9-.2.2-.5.3-1 .3l-.9-.3c-.2-.3-.3-.6-.3-1Z" fill="#fff"/></g><defs><clipPath id="a"><path fill="#fff" transform="translate(0 .7)" d="M0 0h160v37.2H0z"/></clipPath></defs></svg>